<svg width="97" height="24" fill="none" xmlns="http://www.w3.org/2000/svg"><path fill-rule="evenodd" clip-rule="evenodd" d="M87.351 23.512c-5.78 0-9.029-2.877-9.029-8.494s3.249-8.457 9.03-8.457c5.78 0 9.028 2.84 9.028 8.457 0 5.617-3.248 8.494-9.029 8.494zm0-13.558c-2.595 0-3.856 1.461-3.856 5.064 0 3.603 1.252 5.1 3.856 5.1 2.605 0 3.857-1.497 3.857-5.1 0-3.603-1.252-5.064-3.857-5.064zM76.18 23.204c-.916.181-2.604.308-3.974.308-4.283 0-6.425-2.141-6.425-6.715V2.741c0-.518.39-.917.917-.917h3.33c.526 0 .926.4.926.917v4.982h4.156c.517 0 .916.399.916.916v1.77a.902.902 0 01-.916.916h-4.156v5.472c0 2.07 1.07 3.167 2.622 3.167.799 0 1.38-.181 2.051-.181h.554c.517 0 .916.399.916.916v1.588c0 .463-.4.826-.916.917zM62.078 11.751h-2.232c-.762 0-1.316-.3-1.715-.79-.518-.644-1.652-1.007-2.968-1.007-2.105 0-2.967.581-2.967 1.434 0 2.532 11.289 1.071 11.289 7.296 0 3.448-3.458 4.828-8.231 4.828-5.018 0-8.203-1.098-8.203-4.274a.9.9 0 01.925-.917h2.233c.762 0 1.315.3 1.715.79.517.644 1.651 1.007 2.967 1.007 2.568 0 3.421-.58 3.421-1.434.01-2.532-11.289-1.125-11.289-7.296 0-3.448 3.458-4.827 7.777-4.827 5.019 0 8.195 1.098 8.195 4.274 0 .517-.39.916-.917.916zM39.72 7.232h3.339c.517 0 .916.4.916.917v14.138c0 .526-.4.917-.916.917h-3.34a.897.897 0 01-.916-.917V8.149c0-.517.399-.917.916-.917zm-3.276.944L29.99 21.887c-.372.799-1.197 1.316-2.023 1.316h-2.196a2.27 2.27 0 01-2.024-1.316l-6.46-13.711c-.337-.726-.091-1.307.616-1.307h2.877c.826 0 1.679.517 2.015 1.307l4.074 9.292 4.065-9.292c.345-.79 1.198-1.307 2.024-1.307h2.877c.707 0 .943.58.608 1.307zm-22.732 9.529l2.54 4.092c.49.799.273 1.407-.526 1.407h-2.813c-.98 0-1.806-.608-2.296-1.407l-1.896-3.085c-.826-1.343-2.17-1.978-3.549-1.978v5.553a.897.897 0 01-.916.917H.916A.897.897 0 010 22.287V2.741c0-.518.4-.917.917-.917h3.339c.517 0 .916.4.916.917V13.34c1.77 0 2.94-.735 3.549-2.015l1.443-3.049c.39-.862 1.252-1.406 2.141-1.406h2.813c.799 0 .89.608.517 1.406l-1.923 4.056c-.645 1.343-1.87 2.414-3.186 2.687 1.253.372 2.27 1.225 3.186 2.686z" fill="#2B2A29"/><path d="M41.325 5.662a2.831 2.831 0 100-5.662 2.831 2.831 0 000 5.662z" fill="#E31E24"/></svg>