<svg width="24" height="24" fill="none" xmlns="http://www.w3.org/2000/svg"><path d="M11.683 6.633c1.401 0 2.722.647 3.69 1.66v.002c0-.486.313-.854.746-.854h.11c.685 0 .822.673.822.885l.003 7.554c-.048.495.49.75.789.432 1.161-1.245 2.553-6.408-.723-9.397-3.056-2.79-7.157-2.329-9.338-.762-2.317 1.669-3.799 5.355-2.36 8.82 1.572 3.778 6.064 4.905 8.738 3.78 1.353-.569 1.977 1.336.57 1.96-2.12.942-8.029.846-10.789-4.136-1.864-3.365-1.765-9.284 3.182-12.351 3.78-2.348 8.77-1.697 11.777 1.576 3.143 3.425 2.961 9.832-.107 12.324-1.39 1.132-3.453.03-3.438-1.62l-.016-.538c-.967.999-2.255 1.585-3.656 1.585-2.771 0-5.212-2.544-5.212-5.43 0-2.918 2.44-5.49 5.212-5.49zm3.487 5.28c-.105-2.114-1.61-3.387-3.43-3.387h-.069c-2.097 0-3.261 1.722-3.261 3.674 0 2.188 1.407 3.57 3.253 3.57 2.06 0 3.413-1.571 3.512-3.43l-.005-.426z" fill="#949A98"/></svg>