<svg width="24" height="24" fill="none" xmlns="http://www.w3.org/2000/svg"><path d="M12 5.086a2.12 2.12 0 012.119 2.12A2.12 2.12 0 0112 9.32a2.12 2.12 0 01-2.118-2.116A2.12 2.12 0 0112 5.085zm0 7.234a5.12 5.12 0 005.116-5.115 5.122 5.122 0 00-5.115-5.118 5.118 5.118 0 00-5.112 5.118c0 2.82 2.29 5.115 5.112 5.115zm2.07 4.175a9.641 9.641 0 002.969-1.232 1.5 1.5 0 00-1.597-2.538 6.495 6.495 0 01-6.886 0 1.492 1.492 0 00-2.065.471 1.5 1.5 0 00.472 2.067 9.67 9.67 0 002.97 1.232l-2.861 2.858a1.5 1.5 0 001.059 2.56c.383 0 .767-.149 1.062-.44l2.808-2.81 2.81 2.81a1.495 1.495 0 002.119 0 1.5 1.5 0 000-2.12l-2.86-2.858z" fill="#949A98"/></svg>