<svg width="1920" height="1209" fill="none" xmlns="http://www.w3.org/2000/svg"><path d="M267 1113s182.431-113.486 312.5-152.504c193.426-58.024 376.18 120.224 516.5-25C1179.82 848.744 1176.5 670 1180 614c1.81-28.943-15-58.5-44.5-51-32.23 8.194-48.5 24.5-48.5 51s3.2 47.687 48.5 52c52.5 5 271.96-160.976 444-152.504 116.16 5.72 157.84 135.236 273 119 45.01-6.347 109.5-39.5 109.5-39.5" stroke="#fff" stroke-width="5" stroke-linecap="round"/><circle cx="101.5" cy="96.5" r="206.5" stroke="#fff" stroke-width="6"/><path d="M1629.5 481.5c0 57.552-14.25 109.461-42.7 146.929-28.4 37.402-71.06 60.571-128.3 60.571-114.6 0-207.5-92.901-207.5-207.5S1343.9 274 1458.5 274c57.24 0 99.9 23.169 128.3 60.571 28.45 37.468 42.7 89.377 42.7 146.929z" stroke="#fff" stroke-width="4"/><path d="M1271 788h59s53.29 91.241 54.5 156.5c1.27 68.96-54.5 169.5-54.5 169.5l-207.5-14s116.61-54.06 148.5-122c31.53-67.169 0-190 0-190z" fill="#FEF9F0"/><path d="M1572 252c52.5-58.37 105.04-66.175 180-89.5 68.32-21.261 181-28.5 181-28.5l43.5 118s-54.33 17.289-83 0c-62.4-37.624-130.1 1.499-196.5 31.5-70.65 31.919-103.7 211.414-156 148.5-25.98-31.252-26.85-62.833-18-102.5 7.79-34.949 25.05-50.876 49-77.5z" fill="#FFFAF1"/><circle cx="101.5" cy="96.5" r="185.5" fill="#FFFAF1"/><path d="M1643.48 740.731l116.99 72.405c3.43 2.12 1.92 7.401-2.1 7.401h-85.79c-3.16 0-5.07 3.488-3.37 6.15l38.64 60.614c1.95 3.063-.86 6.933-4.38 6.022l-141.29-36.591c-3.58-.929-6.39 3.097-4.29 6.145l57.05 82.594" stroke="#fff" stroke-width="30" stroke-linecap="round"/><circle cx="827.5" cy="-154.5" r="206.5" stroke="#fff" stroke-width="6"/><circle cx="981.5" cy="-132.5" r="206.5" stroke="#fff" stroke-width="6"/><circle cx="7.5" cy="2.5" r="113.5" stroke="#fff" stroke-width="4"/><g opacity=".8" filter="url(#filter0_d_271_2181)"><circle cx="159.5" cy="164.5" r="8.5" fill="#F64C51"/></g><g opacity=".8" filter="url(#filter1_d_271_2181)"><circle cx="1019.5" cy="926.5" r="5.5" fill="#F64C51"/></g><g filter="url(#filter2_d_271_2181)"><circle cx="1413.5" cy="1016.5" r="8.5" fill="#87CAE3"/></g><g filter="url(#filter3_d_271_2181)"><circle cx="1124.5" cy="447.5" r="4.5" fill="#87CAE3"/></g><g filter="url(#filter4_d_271_2181)"><circle cx="60.5" cy="612.5" r="4.5" fill="#87CAE3"/></g><circle opacity=".5" cx="1862" cy="323" r="6" fill="#F64C51"/><path d="M-66.975 1011.02L75.046 862.418c2.693-2.818 7.414-.514 6.85 3.342l-20.761 141.89c-.469 3.2 2.861 5.61 5.753 4.15l94.823-47.615c3.401-1.708 7.04 1.849 5.41 5.288L74.825 1164.18c-1.582 3.33 1.816 6.85 5.204 5.38l132.565-57.42M486.5 224l149.576-91.819a4 4 0 013.929-.145l175.936 90.9a4.001 4.001 0 004.006-.193l139.581-90.146a4 4 0 014.732.288l106.96 89.217a4.01 4.01 0 004.76.275l137.12-89.807a4.007 4.007 0 014.66.194l114.47 89.466a4.009 4.009 0 004.67.187L1475.5 131" stroke="#fff" stroke-width="30" stroke-linecap="round"/><defs><filter id="filter0_d_271_2181" x="140" y="151" width="45" height="45" filterUnits="userSpaceOnUse" color-interpolation-filters="sRGB"><feFlood flood-opacity="0" result="BackgroundImageFix"/><feColorMatrix in="SourceAlpha" values="0 0 0 0 0 0 0 0 0 0 0 0 0 0 0 0 0 0 127 0" result="hardAlpha"/><feOffset dx="3" dy="9"/><feGaussianBlur stdDeviation="7"/><feComposite in2="hardAlpha" operator="out"/><feColorMatrix values="0 0 0 0 0.972549 0 0 0 0 0.705882 0 0 0 0 0.392157 0 0 0 0.3 0"/><feBlend in2="BackgroundImageFix" result="effect1_dropShadow_271_2181"/><feBlend in="SourceGraphic" in2="effect1_dropShadow_271_2181" result="shape"/></filter><filter id="filter1_d_271_2181" x="1003" y="916" width="39" height="39" filterUnits="userSpaceOnUse" color-interpolation-filters="sRGB"><feFlood flood-opacity="0" result="BackgroundImageFix"/><feColorMatrix in="SourceAlpha" values="0 0 0 0 0 0 0 0 0 0 0 0 0 0 0 0 0 0 127 0" result="hardAlpha"/><feOffset dx="3" dy="9"/><feGaussianBlur stdDeviation="7"/><feComposite in2="hardAlpha" operator="out"/><feColorMatrix values="0 0 0 0 0.972549 0 0 0 0 0.705882 0 0 0 0 0.392157 0 0 0 0.3 0"/><feBlend in2="BackgroundImageFix" result="effect1_dropShadow_271_2181"/><feBlend in="SourceGraphic" in2="effect1_dropShadow_271_2181" result="shape"/></filter><filter id="filter2_d_271_2181" x="1394" y="1003" width="45" height="45" filterUnits="userSpaceOnUse" color-interpolation-filters="sRGB"><feFlood flood-opacity="0" result="BackgroundImageFix"/><feColorMatrix in="SourceAlpha" values="0 0 0 0 0 0 0 0 0 0 0 0 0 0 0 0 0 0 127 0" result="hardAlpha"/><feOffset dx="3" dy="9"/><feGaussianBlur stdDeviation="7"/><feComposite in2="hardAlpha" operator="out"/><feColorMatrix values="0 0 0 0 0.529412 0 0 0 0 0.792157 0 0 0 0 0.890196 0 0 0 0.3 0"/><feBlend in2="BackgroundImageFix" result="effect1_dropShadow_271_2181"/><feBlend in="SourceGraphic" in2="effect1_dropShadow_271_2181" result="shape"/></filter><filter id="filter3_d_271_2181" x="1109" y="438" width="37" height="37" filterUnits="userSpaceOnUse" color-interpolation-filters="sRGB"><feFlood flood-opacity="0" result="BackgroundImageFix"/><feColorMatrix in="SourceAlpha" values="0 0 0 0 0 0 0 0 0 0 0 0 0 0 0 0 0 0 127 0" result="hardAlpha"/><feOffset dx="3" dy="9"/><feGaussianBlur stdDeviation="7"/><feComposite in2="hardAlpha" operator="out"/><feColorMatrix values="0 0 0 0 0.529412 0 0 0 0 0.792157 0 0 0 0 0.890196 0 0 0 0.3 0"/><feBlend in2="BackgroundImageFix" result="effect1_dropShadow_271_2181"/><feBlend in="SourceGraphic" in2="effect1_dropShadow_271_2181" result="shape"/></filter><filter id="filter4_d_271_2181" x="45" y="603" width="37" height="37" filterUnits="userSpaceOnUse" color-interpolation-filters="sRGB"><feFlood flood-opacity="0" result="BackgroundImageFix"/><feColorMatrix in="SourceAlpha" values="0 0 0 0 0 0 0 0 0 0 0 0 0 0 0 0 0 0 127 0" result="hardAlpha"/><feOffset dx="3" dy="9"/><feGaussianBlur stdDeviation="7"/><feComposite in2="hardAlpha" operator="out"/><feColorMatrix values="0 0 0 0 0.529412 0 0 0 0 0.792157 0 0 0 0 0.890196 0 0 0 0.3 0"/><feBlend in2="BackgroundImageFix" result="effect1_dropShadow_271_2181"/><feBlend in="SourceGraphic" in2="effect1_dropShadow_271_2181" result="shape"/></filter></defs></svg>