<svg width="359" height="124" fill="none" xmlns="http://www.w3.org/2000/svg"><mask id="mask0_718_305" style="mask-type:alpha" maskUnits="userSpaceOnUse" x="0" y="0" width="107" height="124"><path fill="url(#paint0_linear_718_305)" d="M0 0h106.048v123.781H0z"/></mask><g mask="url(#mask0_718_305)"><path d="M84.72 128.424c.745-7.534.935-15.111 1.135-22.683.086-3.275.212-6.552.233-9.83.012-2.05.055-4.1.096-6.148.093-4.672.19-9.344.106-14.019-.071-3.98-.182-8.086-.997-11.974-.391-1.874-1.216-5.052-3.355-4.956a2.442 2.442 0 00-.642.119c-.314.102-.18.662.134.56.756-.244 1.42-.002 1.952.669.693.874 1.04 2.103 1.302 3.222.395 1.67.604 3.397.756 5.114.185 2.103.276 4.219.326 6.33.11 4.61.026 9.223-.065 13.831-.04 2.06-.086 4.117-.11 6.177-.032 2.865-.108 5.727-.181 8.592-.192 7.432-.329 14.879-.948 22.282-.076.904-.16 1.808-.248 2.711-.038.375.468.372.505.003z" fill="#475A76"/><path d="M45.765 85.25c.177 2.45-.503 4.958-1.92 6.811-1.299 1.7-3.14 2.819-5.112 2.979-1.125.09-2.238-.128-3.282-.605-.304-.136-.435.424-.134.561a6.925 6.925 0 006.056-.128c1.995-1.008 3.558-2.949 4.349-5.27.47-1.378.657-2.871.551-4.344-.03-.375-.536-.378-.508-.003z" fill="#D96442"/><path d="M77.722 113.007c4.27 4.382 9.424-2.097 11.745-5.947 3.482-5.776 4.999-13.735 2.761-20.45-.867-2.603-2.602-4.517-5.09-4.779l-13.617 26.304 4.2 4.872zM46.917 79.428c-.749 2.182-.63 6.488-1.57 9.896-.893 3.24-3.905 5.039-6.75 4.109l-1.595-.523c-.096-.032-.076-.189.023-.195 6.498-.351 3.434-9.222 4.69-12.883l5.202-.404z" fill="#142943"/><path d="M81.996 96.652a1.59 1.59 0 00.943-.709c.238-.383.281-.874.18-1.322-.033-.148-.182-.25-.311-.203a.304.304 0 00-.177.357c.01.05.02.099.028.148.012.07-.003-.043.002.02.003.024.003.047.005.07.003.047.003.093 0 .137 0 .017.003.05-.005.067.023-.061.003-.015-.002.008a1.79 1.79 0 01-.043.186l-.003.009c-.03.081-.068.154-.111.227-.03.052.01-.01-.005.005-.013.015-.023.032-.036.047-.025.032-.05.061-.076.09-.012.015-.027.026-.04.04-.04.044.01-.005-.005.007-.03.023-.06.049-.091.072a1.214 1.214 0 01-.15.093c-.007.006-.017.009-.025.015.028-.015.033-.018.018-.009-.076.026-.149.061-.227.081-.13.035-.218.212-.177.358.04.16.17.244.308.206z" fill="#fff"/><path d="M56.248 66.013c-2.05 4.225-3.363 10.815-3.861 14.165-4.354-1.703-6.7.805-17.207-2.295l.339 4.024c5.297 2.368 8.458 4.123 12.008 4.867 2.023.424 4.741.697 6.885.569 1.92-.116 1.96-.689 2.749-3.405.758-2.612 1.818-5.222 2.243-7.941.47-2.996 1.307-5.425 1.163-8.4-.078-1.595-1.527-2.996-1.633-4.588-.023-.357-1.161.311-.982 0l-1.704 3.004z" fill="#F9A6A4"/><path d="M55.972 41.633a7.279 7.279 0 00-1.325 1.183c-1.09 1.252-1.724 3.199-1.137 4.837.654 1.834 2.52 2.636 4.217 2.976-3.393.953-6.883 5.12-3.613 8.722 1.532 1.688 3.775 2.162 5.892 2.35 2.24.198 4.551.149 6.647-.778 1.94-.857 3.596-2.432 4.916-4.28 3.795-5.317 4.718-13.272 1.894-19.336-1.932-4.144-5.614-7.128-9.619-8.005-3.892-.851-9.004.953-9.118 6.49-.05 2.395 1.85 4.827 3.899 4.383-.903.43-1.823.871-2.653 1.458z" fill="#142943"/><path d="M44.365 79.533c6.087 2.362 3.763 11.09 3.437 16.872-.425 7.537.892 15.083 7.793 17.988 4.708 1.985 11.199-.7 13.303-6.078.602-1.537.688-3.263.769-4.945.07-1.502.075-3.208-.868-4.251l.144-.372c-3.813 1.88-8.367 2.74-12.213.477-3.674-2.165-3.047-7.5-3.517-11.451-.29-2.438-.926-4.873-2.263-6.581-1.133-1.447-2.81-2.165-4.499-2.051-.693.046-1.385.093-2.076.142l-.01.25z" fill="#7F3453"/><path d="M59.413 58.875c.728-.666 1.514-1.235 2.384-1.662 3.065-1.502 6.46-1.3 9.71-1.06 3.054.223 6.326.043 8.764 2.576 2.15 2.235 1.416 3.958 1.16 6.71-.523 5.645-3.418 7.344-4.556 12.778-1.305 6.232-1.869 12.735-1.547 19.136.017.354-.127 4.073-.167 4.076l-15.577.296.372-26.588s-3.891-4.504-3.952-4.562c-.607-.56-1.823-.996-2.253-1.729-.594-1.014.283-1.842.857-2.612 1.818-2.432 2.584-5.331 4.805-7.36z" fill="#F9A6A4"/><path d="M63.269 69.558c.076-1.278 2.265-2.734 3.06-3.199 2.432-1.423 5.512-1.647 8.174-1.2 2.304.387 4.135 1.735 5.811 3.394.377.375-2.637 8.295-2.852 9.045-1.727 6.026-3.725 15.585.005 21.14l-16.057 2.72c.003 0 1.856-31.818 1.859-31.9z" fill="#E6835D"/><path d="M61.592 46.587L63.6 58.354l5.168 3.156 1.497-3.894.44-13.44-9.113 2.41z" fill="#F9A6A4"/><path d="M62.024 29.625c-2.066 2.3-4.19 4.759-5.527 7.717-1.76 3.896-1.861 10.178 2.215 12.203 4.076 2.025 9.543-1.717 12.433-4.826 1.34-1.441 2.698-3.263 3.087-5.384.974-5.291-2.336-10.62-7.007-11.3-.76-.11-1.527.052-2.28.218-1.262.273-2.64.628-3.422 1.799l.501-.427z" fill="#F9A6A4"/><path d="M60.248 46.691c-.458 0-.825-.34-.976-.738-.175-.456-.059-.935.29-1.19.12-.088.276-.047.35.086.075.134.042.314-.077.401-.197.146-.136.378-.1.471.093.244.34.462.667.366.192-.058.293-.157.306-.3.015-.206-.142-.464-.352-.577-.126-.067-.182-.242-.124-.387.059-.145.208-.209.337-.142.41.218.68.703.645 1.156-.03.395-.281.692-.683.81a.892.892 0 01-.283.044z" fill="#9B565D"/><path d="M59.7 45.3a.243.243 0 01-.213-.134.318.318 0 01.076-.4.986.986 0 01.296-.149.908.908 0 01.71.067c.127.067.183.241.124.387-.058.145-.21.209-.336.142a.463.463 0 00-.364-.035.616.616 0 00-.16.078.248.248 0 01-.133.044z" fill="#9B565D"/><path d="M59.548 38.568c.038.075-.157.285-.217.337-.304.258-.026.47-.382.642-.797.38-1.778.276-2.554-.18a2.328 2.328 0 01-.283-.183c-.099-.073-.933-.77-1.257-1.087a.192.192 0 01.008-.267l.164-.142c.422-.37.89-.753 1.403-.988.428-.198.888-.294 1.386-.192.915.255 1.444.877 1.886 1.647.091.157-.24.244-.154.413z" fill="#FDFDFD"/><path d="M56.521 39.204c-.04.056-.08.11-.126.163a2.316 2.316 0 01-.283-.183c-.099-.073-.933-.77-1.257-1.087a.192.192 0 01.008-.267l.164-.142c.422-.37.89-.753 1.403-.988.273.235.473.662.514 1.246.027.413-.152.872-.423 1.258z" fill="#1A3B5A"/><path d="M66.46 39.89c-.86 1.476-3.313 2.097-4.507.932l-.07-.07c-.344-.345-1.472-1.516-1.078-1.83.597-.47 1.31-.813 2.04-.903.236-.032.474-.035.709-.01 1.037.12 2.142.965 2.895 1.773.025.03.03.073.01.108z" fill="#FDFDFD"/><path d="M62.522 40.093a2.855 2.855 0 01-.64.66c-.343-.346-1.471-1.517-1.077-1.83.597-.471 1.31-.814 2.04-.904.072.2.12.435.137.697.03.453-.164.956-.46 1.377zm5.238-8.316a5.628 5.628 0 01-1.024 1.758c-1.823 2.098-4.954 2.592-7.31 1.502-.827-.38-1.576-1.06-1.942-1.993-.58-1.473-.089-3.228.7-4.564.723-1.218 1.712-2.25 2.86-2.894a5.73 5.73 0 011.209-.52c1.65-.491 4.035-.201 5.095 1.52.549.894.806 1.943.806 2.989a6.44 6.44 0 01-.394 2.202z" fill="#1A3B5A"/><path d="M71.65 34.21c-2.52 1.136-5.504 1.133-7.94.008-1.413-.654-2.813-2.173-3.215-3.92-.585-2.542.604-4.666 2.637-5.627 2.657-1.255 6.27-.663 8.038 2.118.756 1.188 1.07 2.652 1.07 4.111a9.501 9.501 0 01-.59 3.31z" fill="#142943"/><path d="M59.654 37.931c-.867 2.328-1.853 2.455-2.567 3.609-.791 1.278.1 1.647 1.098 1.575l1.469-5.184z" fill="#F9A6A4"/><path d="M57.956 43.414c-.468 0-1.088-.102-1.33-.605-.185-.38-.099-.862.258-1.438.273-.441.576-.735.895-1.046.546-.529 1.11-1.078 1.643-2.51.056-.148.205-.215.332-.151.129.064.187.235.131.38-.581 1.558-1.219 2.18-1.783 2.726-.293.285-.571.555-.809.938-.225.366-.306.657-.227.82.108.22.538.34 1.102.296.137-.011.26.11.268.27.01.16-.096.3-.235.308a3.082 3.082 0 01-.245.012z" fill="#DD7676"/><path d="M79.22 55.057c-2.489 1.423-6.21 1.598-8.254 1.293-3.507-.523-7.81-4.283-5.393-8.703.821-1.499 2.366-2.44 3.906-2.385-1.277-.128-2.192-1.781-2.055-3.272.141-1.548.444-3.724 1.54-4.643-1.753.87-3.477.18-4.527-1.65-1.052-1.83-.82-3.696.094-5.622 1.06-2.237 3.27-3.72 5.512-3.998 2.018-.253 4.061.468 5.32 2.478 1.37 2.191.719 5.881-1.504 6.753 1.5.764 3.042 1.56 4.157 2.94 2.463 3.042.872 6.695-2.291 7.787 1.216.171 2.458.352 3.57.944 1.113.593 2.097 1.677 2.344 3.057.438 2.446-.692 4.036-2.42 5.02z" fill="#1A3B5A"/><path d="M79.22 55.057l-.189-.01c-3.168-.182-6.961-2.547-6.71-6.734a21.128 21.128 0 011.8-7.389c-1.399-.375-2.577-1.68-2.956-3.271-.38-1.59.055-3.403 1.092-4.545-1.092.77-2.561-.055-3.184-1.36a3.147 3.147 0 01-.224-.645c-.377-1.65.25-3.385 1.067-4.808.043-.076.085-.148.129-.218 2.017-.253 4.06.468 5.32 2.478 1.37 2.191.718 5.881-1.505 6.753 1.5.764 3.042 1.56 4.157 2.94 2.463 3.042.873 6.695-2.29 7.787 1.216.171 2.457.352 3.57.944 1.112.593 2.096 1.677 2.344 3.057.437 2.446-.693 4.036-2.42 5.02z" fill="#142943"/><path d="M67.367 40.386c1.095-1.97 4.24-.029 3.517 2.273-.435 1.389-1.507 2.153-2.703 2.417-.377.084-2.203.447-1.659-.604l.845-4.086z" fill="#F9A6A4"/><path d="M68.197 44.056c-.366 0-.665-.163-.822-.447-.192-.352-.103-.855.188-1.096.455-.375.948.07 1.11.215a.32.32 0 01.043.407c-.086.125-.246.148-.354.05-.316-.285-.435-.256-.503-.201-.079.064-.107.22-.054.314.071.133.258.183.407.174.554-.009.956-.517 1.055-.988.043-.209.088-.726-.425-1.037-.225-.137-.485-.212-.733-.273-.137-.035-.223-.19-.192-.346.03-.157.166-.253.3-.22.269.069.577.156.86.328.567.342.827.99.68 1.688-.146.7-.72 1.417-1.54 1.432h-.02z" fill="#DD7676"/><path d="M69.387 46.503c-.314 0-.627-.122-.9-.37-.557-.499-.627-1.446-.41-2.123.048-.151.195-.227.324-.172.131.056.197.224.149.372-.15.468-.114 1.14.248 1.465.359.322.784.33 1.138.029.316-.273.543-.808.34-1.392-.052-.148.011-.317.142-.378.13-.058.276.012.33.163.3.869-.039 1.665-.509 2.072a1.293 1.293 0 01-.852.334z" fill="#fff"/><path d="M72.402 44.457c-.203 0-.402-.026-.6-.081-.136-.038-.22-.195-.187-.352.033-.157.17-.25.306-.215.936.262 2.005-.27 2.541-1.258.516-.95.531-2.246.04-3.298-.48-1.028-1.48-1.839-2.75-2.225-.117-.035-.195-.157-.187-.294.005-.136.093-.25.212-.273 1.156-.218 2.008-1.246 2.28-2.748.32-1.747-.227-3.54-1.324-4.359-1.778-1.328-4.87-1.034-6.486.616-.104.108-.263.096-.356-.023a.32.32 0 01.02-.41c1.797-1.836 5.115-2.15 7.097-.67 1.27.946 1.905 2.989 1.546 4.965-.253 1.389-.941 2.429-1.902 2.928 1.042.489 1.858 1.27 2.301 2.217.574 1.235.551 2.758-.058 3.882-.541.99-1.522 1.598-2.493 1.598zm-4.819 6.651c1.813 1.9 4.954 3.31 7.379 2.121 1.886-.924.134-2.499-1.007-2.978-.066.198-.129.395-.194.593 1.669.459 6.827 1.476 5.613-2.264-.124-.383-.624-.113-.5.27.905 2.79-3.695 1.738-4.919 1.4-.336-.092-.538.451-.194.594.553.232 2.076.918 1.115 1.743-.607.52-1.902.4-2.623.314-1.653-.2-3.127-1.035-4.349-2.313-.263-.273-.581.247-.32.52z" fill="#4A5D79"/><path d="M57.32 101.278c.296.02 1.598-4.794 1.634-5.094.452-3.684 1.183-11.581.349-15.193-1.568-6.784-7.275-6.59-5.76-14.17 0 0 4.877-3.8 9.995 2.9l.463.035c3.517 5.712 3.211 12.116 2.245 19.022l-1.006 7.183-2.488 5.706c0-.003-5.43-.389-5.432-.389z" fill="#E6835D"/><path d="M60.315 90.722c-4.782 7.455-9.017 17.293-8.666 26.646.812 21.638 8.747 42.479 4.435 64.259 7.043-10.512 21.688-8.057 28.973-.944-3.358-15.949-5.755-33.824-2.915-49.737 2.713-15.222 1.252-27.748-6.415-39.3l-15.412-.924z" fill="#E6835D"/><path d="M49.732 122.802c-.134 0-.245-.122-.253-.276a110.796 110.796 0 01-.111-5.628c.048-7.456 3.115-16.143 8.635-24.47.119-1.691.182-3.571.177-5.303 0-.16.114-.29.253-.29s.253.13.253.29a77.01 77.01 0 01-.185 5.436.365.365 0 01-.05.154c-5.483 8.246-8.53 16.838-8.578 24.189-.012 1.798.026 3.629.112 5.593.007.16-.102.296-.24.305h-.013z" fill="#7F3453"/><path d="M63.343 102.931c-.114 0-.215-.087-.243-.215-.053-.221-.101-.436-.15-.648-.348-1.528-.652-2.845-1.6-4.004a.32.32 0 01.01-.41.23.23 0 01.357.012c.953 1.162 1.297 2.426 1.633 3.87 1.642-5.401 7.912-9.25 12.052-9.704.139-.015.263.102.275.261.013.16-.088.302-.227.317-4.248.465-10.815 4.602-11.86 10.288-.025.131-.123.227-.24.23-.002.003-.005.003-.007.003z" fill="#D96442"/><path d="M79.636 58.183c5.563 3.545 10.67 13.17 14.32 20.133.508.97.626 2.15.3 3.222-.92 3.03-4.622 8.077-14.39 16.25l-1.376-3.71c5.037-6.445 7.01-10.068 9.478-13.59-2.739-3.558-8.494-10.285-11.366-14.713l3.034-7.592z" fill="#F9A6A4"/><path d="M81.362 72.37a.236.236 0 01-.184-.092 296.678 296.678 0 01-3.141-3.955.321.321 0 01.02-.41c.104-.107.263-.095.357.024a296.501 296.501 0 003.133 3.946.32.32 0 01-.013.41.228.228 0 01-.172.078z" fill="#D96442"/><path d="M78.546 94.055l-3.64-2.235-.271 5.965c1.962.419 3.785.564 5.242 0l-1.33-3.73z" fill="#F9A6A4"/><path d="M75.918 97.137l-2.213 1.529-.566 2.443c-.06.268-.309.416-.536.32-.187-.079-.296-.297-.263-.523l.377-2.514c.06-.41.283-.76.599-.958l2.448-1.514.154 1.217z" fill="#F9A6A4"/><path d="M75.487 94.804l-2.533.267a.744.744 0 00-.564.393l-1.072 1.894a2.565 2.565 0 00-.278.741l-.074.343c-.05.241.076.482.283.546.17.05.347-.032.435-.203l.83-1.58c.225-.428.607-.71 1.036-.768l2.258-.305-.32-1.328z" fill="#F9A6A4"/><path d="M77.267 132.178c-.134 0-.246-.119-.253-.273-.187-3.859-.422-7.787-.647-11.587-.762-12.822-1.55-26.08-.724-39.132.289-4.567.741-9.176 1.35-13.69l.084-.637c.397-3.074.94-7.284 4.23-8.043.137-.032.271.07.299.227.028.157-.06.31-.197.343-2.941.68-3.434 4.495-3.831 7.557l-.084.64c-.607 4.5-1.06 9.09-1.345 13.644-.824 13.01-.038 26.248.723 39.05.225 3.8.46 7.732.647 11.593.008.16-.098.296-.237.305-.005.003-.01.003-.015.003z" fill="#475A76"/><path d="M74.88 94.889l-2.89-.805-2.017.82-.567.58c-.083.088-.217.015-.215-.113.01-.482.243-.918.612-1.15l1.55-.971a1.89 1.89 0 011.43-.25l2.126.491.123.933-.151.465zm.15-2.923l-1.12-1.65a1.136 1.136 0 00-.78-.506l-2.072-.29c-.15-.021-.279.112-.279.284 0 .13.076.244.187.276.602.177 1.202.354 1.798.552.071.023.144.046.208.093a.88.88 0 01.194.218c.605.843 1.212 1.682 1.823 2.519l.04-1.496z" fill="#F9A6A4"/><path d="M64.782 60.208c-.62 0-1.176-.215-1.616-.738-.612-.732-1.004-1.793-1.198-3.251-.02-.16.073-.308.212-.332.136-.023.268.085.288.245.18 1.333.526 2.292 1.065 2.934 1.59 1.897 5.56-1.537 7.055-2.83l.126-.11c.111-.096.27-.07.354.058.084.128.06.31-.05.407l-.127.11c-1.34 1.154-4.058 3.507-6.11 3.507z" fill="#fff"/><path d="M60.714 57.055c.473 2.351 1.05 4.597 2.443 6.462.283.38.698 1.125 1.2.817.507-.311.974-.788 1.42-1.197.986-.901 1.903-1.9 2.755-2.967a35.114 35.114 0 002.653-3.85c.185-.308-.253-.598-.437-.293-1.308 2.176-2.807 4.204-4.544 5.944a22.336 22.336 0 01-1.684 1.532c-.096.078-.243.252-.354.282-.11.029.01.058-.12-.012-.04-.02-.118-.14-.14-.169-.092-.11-.18-.22-.269-.33a10.14 10.14 0 01-1.502-2.709c-.435-1.17-.688-2.426-.935-3.66-.071-.367-.557-.213-.486.15z" fill="#fff"/><path d="M63.65 64.604c.028-.035.07-.067.096-.105-.002.003-.05.044-.018.018l.023-.017a.39.39 0 01.056-.038c.01-.006.07-.038.025-.015-.045.023.013-.003.023-.008l.043-.015c.008-.003.015-.003.02-.006.043-.012-.066.006-.025.003h.093c.038 0-.07-.017-.015-.003l.05.015a.368.368 0 01.044.017c.028.012-.063-.035-.028-.011.005.002.013.005.018.011a.85.85 0 01.08.058c.051.038-.042-.043-.005-.003l.038.038c.026.026.046.055.069.084.04.053-.03-.052-.003-.003.01.018.02.032.028.05.018.035.035.07.05.104.006.012.031.082.013.027-.02-.056.005.017.008.029a.98.98 0 01.04.177c.003.009.003.017.005.026.008.038-.007-.081-.002-.03.002.042.005.082.005.123 0 .02 0 .04-.003.061l-.002.026c-.003.038.012-.081.002-.029-.007.04-.012.078-.025.12-.005.02-.013.037-.018.057-.01.032.026-.06.013-.032l-.013.032c-.017.038-.038.073-.058.108-.023.038.015-.023.018-.023-.008.008-.013.02-.02.029a.681.681 0 01-.081.09s-.02.017-.02.02c.025-.023.03-.026.015-.014a1.238 1.238 0 01-.144.105.296.296 0 00-.053.028c.037-.032.042-.02.02-.011a1.122 1.122 0 00-.091.032c-.023.005-.096.011-.008.005-.035.003-.07.006-.109.003l-.022-.003c-.038 0 .033.006.033.006a.246.246 0 00-.051-.011l-.048-.018c-.058-.02.053.032 0 0-.028-.017-.053-.038-.078-.055-.026-.018.05.052.02.017-.005-.005-.01-.011-.018-.017l-.04-.044-.03-.037c-.031-.038.032.052.014.023l-.012-.02a.877.877 0 01-.056-.111c-.002-.009-.008-.017-.01-.023-.023-.047.023.07.008.02-.008-.023-.016-.043-.02-.064a.819.819 0 01-.029-.136c-.01-.073.006.067 0-.01-.002-.022-.002-.049-.002-.072 0-.05.002-.099.005-.148.005-.055-.01.064-.003.026.003-.011.003-.026.006-.038l.015-.075a.594.594 0 01.02-.073c.002-.011.008-.023.013-.037.007-.03-.028.07-.005.011.02-.05.042-.096.068-.142l.015-.026c.005-.01.038-.059.01-.018a.546.546 0 01.043-.058c.089-.113.104-.302 0-.41-.096-.101-.263-.119-.356 0a1.553 1.553 0 00-.271 1.395c.137.436.483.787.908.726.442-.064.867-.453.945-.973.066-.439-.065-.918-.356-1.22-.16-.169-.364-.282-.584-.28-.25.004-.475.152-.642.355-.091.11-.104.302 0 .41.098.102.26.116.356-.003z" fill="#fff"/><path d="M78.503 74.713a.245.245 0 01-.098-.024c-.13-.06-.19-.232-.134-.38a135.044 135.044 0 011.486-3.841c.059-.146.21-.21.337-.14.126.067.182.241.121.386-.007.02-.794 1.962-1.48 3.821-.04.11-.133.178-.232.178zm-12.593 37.28a143.12 143.12 0 003.405 18.07c.433 1.691.898 3.37 1.394 5.038.103.351.591.2.488-.154a142.144 142.144 0 01-4.8-23.108c-.045-.369-.533-.212-.488.154zm-1.456 8.467c-.2 5.93-.62 11.849-1.262 17.736a241.09 241.09 0 01-.607 5.041c-.048.366.44.523.488.154a238.925 238.925 0 001.662-17.843c.093-1.694.167-3.391.225-5.091.012-.372-.493-.372-.506.003z" fill="#D96442"/><path d="M79.273 92.192a5.545 5.545 0 00.746 3.228c.418.703 1.15 1.618 1.978 1.232a.308.308 0 00.177-.358c-.033-.139-.185-.261-.311-.203-.632.294-1.184-.563-1.48-1.092-.47-.84-.68-1.81-.604-2.807.03-.372-.475-.37-.505 0z" fill="#fff"/><path d="M82.004 96.315c.055.081.161.12.255.12.42.008.96-.78.346-.806-.18-.008-.338.122-.472.256-.094.093-.193.224-.16.36a.32.32 0 00.03.07z" fill="#fff"/><path d="M81.825 96.519c.101.145.29.206.447.206a.772.772 0 00.327-.093c.174-.087.323-.244.43-.421a.75.75 0 00.096-.256.6.6 0 00-.003-.233.495.495 0 00-.091-.194.443.443 0 00-.268-.169.7.7 0 00-.205-.02.742.742 0 00-.288.087.91.91 0 00-.18.125c-.07.061-.141.125-.202.198a.78.78 0 00-.157.299.548.548 0 00.056.41c.04.064.083.113.152.133a.22.22 0 00.194-.029.297.297 0 00.117-.174.322.322 0 00-.026-.224 9.08 9.08 0 01-.022-.043c.007.023.017.046.025.07-.005-.018-.01-.033-.013-.05.003.026.005.052.01.078a.226.226 0 010-.058.847.847 0 01-.01.079.343.343 0 01.018-.07c-.008.023-.018.046-.025.07a.547.547 0 01.045-.087.837.837 0 01-.04.058 1.064 1.064 0 01.134-.151.966.966 0 01.19-.134l-.061.029a.544.544 0 01.131-.044c-.022.003-.045.006-.068.012a.556.556 0 01.139.003c-.023-.003-.046-.006-.068-.012a.32.32 0 01.1.032c-.02-.008-.04-.02-.06-.029.018.009.033.02.048.032a.736.736 0 01-.05-.046.186.186 0 01.03.034.791.791 0 00-.04-.058c.007.012.012.024.017.035-.007-.023-.017-.046-.025-.07.005.015.008.03.01.044a.843.843 0 00-.01-.078.28.28 0 010 .058.812.812 0 01.01-.079.362.362 0 01-.02.087c.007-.023.018-.046.025-.07a.699.699 0 01-.07.14.89.89 0 01-.058.064.77.77 0 01-.173.116c.02-.008.04-.02.06-.029a.503.503 0 01-.143.047.56.56 0 00.068-.012.39.39 0 01-.116 0c.022.003.045.006.068.012a.41.41 0 01-.101-.03l.06.03a.23.23 0 01-.068-.047.713.713 0 01.05.047.312.312 0 01-.032-.04c-.038-.056-.121-.085-.18-.085a.245.245 0 00-.18.084.325.325 0 00-.072.206.324.324 0 00.068.21zm-1.976-1.927c-.074.058-.112.177-.12.287-.032.483.62 1.148.678.445.018-.203-.086-.395-.194-.558-.076-.113-.182-.235-.304-.203a.12.12 0 00-.06.029z" fill="#fff"/><path d="M79.722 94.342a.566.566 0 00-.177.233.947.947 0 00-.069.302.88.88 0 00.043.322c.074.236.2.433.372.581a.53.53 0 00.22.122c.111.024.23.018.326-.058a.586.586 0 00.2-.348.959.959 0 00-.025-.515 1.473 1.473 0 00-.127-.276 1.564 1.564 0 00-.159-.232.587.587 0 00-.253-.183.375.375 0 00-.351.052.306.306 0 00-.117.174.324.324 0 00.026.224c.07.128.227.192.346.105l.028-.018-.06.03a.162.162 0 01.042-.015.801.801 0 00-.068.011.133.133 0 01.048 0 .386.386 0 01-.068-.011c.02.003.038.008.055.017-.02-.008-.04-.02-.06-.029a.38.38 0 01.07.047c-.017-.015-.035-.03-.05-.047a.736.736 0 01.07.073c.061.09.117.186.157.29-.007-.023-.017-.046-.025-.07a.864.864 0 01.04.16.693.693 0 00-.01-.078.734.734 0 010 .148.81.81 0 01.01-.078.553.553 0 01-.032.142c.007-.023.017-.046.025-.07a.216.216 0 01-.033.064.793.793 0 01.04-.058.194.194 0 01-.03.035.764.764 0 00.05-.046c-.01.008-.02.014-.03.02l.061-.03c-.012.007-.025.01-.038.013a.542.542 0 00.069-.012.116.116 0 01-.046 0c.023.003.046.006.068.011a.212.212 0 01-.068-.023l.06.03a.445.445 0 01-.105-.073c.017.014.032.029.05.046a1.05 1.05 0 01-.134-.154l.04.058a1.089 1.089 0 01-.108-.212c.007.023.017.047.025.07a.875.875 0 01-.045-.183.843.843 0 00.01.078.65.65 0 010-.14.804.804 0 01-.01.08.477.477 0 01.03-.123c-.008.023-.018.047-.025.07a.324.324 0 01.04-.078.813.813 0 01-.04.058.328.328 0 01.04-.047.412.412 0 00-.05.047l.007-.006a.306.306 0 00.116-.174.325.325 0 00-.025-.224c-.035-.061-.086-.117-.152-.134-.06-.014-.139-.014-.194.032zm1.375-1.976c-.074.058-.112.177-.12.288-.032.482.62 1.148.678.444.018-.203-.085-.395-.194-.557-.076-.114-.182-.236-.304-.204a.145.145 0 00-.06.03z" fill="#fff"/><path d="M80.97 92.113a.564.564 0 00-.177.233.947.947 0 00-.069.302.87.87 0 00.043.322c.074.236.2.433.372.582a.53.53 0 00.22.122c.111.023.23.017.326-.059a.586.586 0 00.2-.348.959.959 0 00-.025-.514 1.475 1.475 0 00-.127-.276 1.557 1.557 0 00-.159-.233.587.587 0 00-.253-.183.382.382 0 00-.351.052.306.306 0 00-.117.175.325.325 0 00.026.223c.07.128.227.192.346.105l.028-.017c-.02.008-.04.02-.06.029.014-.006.027-.012.042-.015a.56.56 0 00-.068.012.133.133 0 01.048 0c-.023-.003-.046-.006-.068-.012.02.003.038.009.055.017-.02-.008-.04-.02-.06-.029a.3.3 0 01.07.05.735.735 0 01-.05-.047.736.736 0 01.07.073c.061.09.117.186.157.29-.007-.023-.017-.046-.025-.07a.864.864 0 01.04.16.84.84 0 00-.01-.078.733.733 0 010 .148c.003-.026.005-.052.01-.078a.553.553 0 01-.032.142c.007-.023.017-.046.025-.07a.215.215 0 01-.033.065.817.817 0 01.04-.059.18.18 0 01-.03.035.713.713 0 00.05-.046.185.185 0 01-.03.02l.061-.029a.19.19 0 01-.038.012.56.56 0 00.069-.012.12.12 0 01-.046 0c.023.003.046.006.068.012a.211.211 0 01-.068-.024l.06.03a.443.443 0 01-.106-.073c.018.014.033.029.051.046a1.045 1.045 0 01-.134-.154l.04.058a1.083 1.083 0 01-.108-.212c.007.024.017.047.025.07a.872.872 0 01-.046-.183l.01.078a.65.65 0 010-.139c-.002.026-.004.052-.01.078a.472.472 0 01.03-.122c-.007.024-.017.047-.024.07a.322.322 0 01.04-.078.804.804 0 01-.04.058.334.334 0 01.04-.047.736.736 0 00-.05.047l.007-.006a.306.306 0 00.116-.174.324.324 0 00-.025-.224c-.035-.061-.086-.116-.152-.134-.063-.014-.139-.014-.194.03zm2.676 2.528a.38.38 0 00-.174-.244c-.367-.238-1.168.16-.637.52.154.105.349.076.523.032.121-.031.26-.09.288-.23a.41.41 0 000-.078z" fill="#fff"/><path d="M83.89 94.563a.643.643 0 00-.307-.427.765.765 0 00-.333-.102.94.94 0 00-.572.151c-.184.122-.331.363-.255.616.096.323.417.485.698.474.166-.006.336-.047.488-.122a.531.531 0 00.288-.515.346.346 0 00-.073-.206.245.245 0 00-.18-.084.245.245 0 00-.18.084c-.042.052-.083.13-.073.206a.208.208 0 010 .061.84.84 0 01.01-.078c-.002.017-.007.032-.012.05.007-.024.017-.047.025-.07a.286.286 0 01-.025.049.784.784 0 01.04-.058.386.386 0 01-.043.05.736.736 0 00.05-.047.335.335 0 01-.083.055l.061-.029a1.033 1.033 0 01-.192.061.763.763 0 01-.215.006.801.801 0 01.068.011.49.49 0 01-.126-.037c.02.008.04.02.06.029a.54.54 0 01-.116-.082c.018.015.033.03.05.047a.56.56 0 01-.065-.073l.04.058a.43.43 0 01-.027-.052c.007.023.017.046.025.07-.005-.018-.01-.035-.013-.053a.843.843 0 00.01.079.128.128 0 010-.044.81.81 0 01-.01.079.272.272 0 01.01-.044c-.007.023-.017.047-.025.07a.246.246 0 01.03-.058.815.815 0 01-.04.058.632.632 0 01.055-.064.433.433 0 00-.05.046.494.494 0 01.124-.08c-.02.008-.04.02-.06.028a.738.738 0 01.136-.052.703.703 0 01.207-.003.542.542 0 01-.068-.012.56.56 0 01.134.041l-.06-.029a.508.508 0 01.095.064.763.763 0 01-.05-.047c.028.024.05.05.073.082-.013-.02-.025-.04-.04-.058a.383.383 0 01.037.072c-.007-.023-.017-.046-.025-.07.005.018.01.035.013.053.025.148.187.25.31.203.142-.052.208-.197.18-.357z" fill="#fff"/><path d="M80.437 90.76c-.194.601.038 1.26.309 1.78.215.413.478.794.776 1.131.546.619 1.34 1.368 2.157 1.322.506-.029.877-.407 1.082-.921.134-.337-.3-.633-.437-.294-.172.43-.445.71-.873.616-.424-.09-.814-.389-1.145-.697a5.368 5.368 0 01-.847-.982c-.314-.476-.736-1.18-.534-1.801.114-.352-.376-.503-.488-.154z" fill="#fff"/><path d="M61.806 72.193a.226.226 0 01-.073-.011c-.134-.047-.21-.21-.17-.36.822-3.159 3.265-5.695 6.537-6.785.134-.044.276.044.314.198.038.154-.038.316-.172.36-3.105 1.034-5.422 3.423-6.195 6.392-.03.125-.13.206-.24.206zm1.299 17.492c.435-2.098.46-4.268.309-6.41-.025-.369-.531-.374-.506 0 .15 2.09.137 4.208-.29 6.256-.077.363.411.517.487.154zm7.951-8.572c1.083-1.293 2.33-2.377 3.601-3.405.263-.215.013-.718-.255-.503-1.307 1.058-2.592 2.17-3.702 3.496-.228.27.129.682.356.412z" fill="#D96442"/><path d="M35.516 81.904c-2.064-.672-5.204-3.089-6.213-5.172l3.12-2.78c1.004 1.368 1.7 2.698 3.034 3.974l.059 3.978z" fill="#F9A6A4"/><path d="M27.04 55.835l9.236.421c.332.015.607.3.658.677l2.506 19.168c.068.517-.311.968-.764.907L29.5 75.802c-.309-.04-.556-.311-.605-.663l-2.569-18.383c-.065-.497.279-.941.713-.92z" fill="#142942"/><path d="M30.039 76.258l-.92-.802c-.175-.351-.542-2.443-.489-2.841l-.323-3.853c-.008-.41.296-.738.65-.7.252.026.465.235.526.517l.45 3.8 1.287 3.472-1.093.53-.088-.123zm3.735.878c-.665-1.224-1.072-2.702-.996-4.675l.847-2.551c.121-.366-.05-.776-.374-.895-.289-.105-.602.055-.726.372l-1.302 3.353 1.064 3.466 1.487.93z" fill="#F9A6A4"/><path d="M30.458 76.038l-.675-2.955a.778.778 0 01-.012-.276l.634-4.672c.053-.398.397-.654.733-.55.309.096.496.457.42.814l-.268 1.278c-.015.07-.02.14-.015.213l.172 2.565a.7.7 0 00.03.166l.845 2.862c.114.386-.094.802-.443.88l-.735.169c-.306.066-.605-.149-.686-.494z" fill="#F9A6A4"/><path d="M29.434 77.075c-.539-.84-.959-1.79-1.313-2.737-.604-1.621-.538-3.086-.748-4.8-.048-.398.215-.758.564-.77.318-.012.589.27.607.636l.065 1.314c.003.07.018.139.04.206l.56 2.522a.65.65 0 00.07.148l1.788 2.33c.207.331.114.8-.202.991l.324 1.95c.01.058-.77-.55-.822-.605a7.577 7.577 0 01-.933-1.185z" fill="#F9A6A4"/><path d="M37.34 53.229a27.487 27.487 0 00-.534-3.153c-.083-.36-.571-.209-.488.154.228.985.402 1.988.516 2.999.018.157.104.29.253.29.124 0 .27-.133.253-.29zm1.864.781a44.71 44.71 0 012-1.484c.279-.195.023-.698-.255-.503a44.77 44.77 0 00-2 1.485.325.325 0 00-.091.398c.066.128.233.194.346.104z" fill="#2E445D"/><path d="M30.893 58.003l-2.992-.236c-.151-.011-.25.122-.22.297l.602 3.547c.03.18.18.335.334.349l3.057.264c.154.015.255-.122.22-.305l-.668-3.58c-.03-.17-.18-.322-.333-.336z" fill="#1A3B5A"/><path d="M29.743 58.959c.015.293.238.584.5.65.264.065.463-.118.45-.412-.014-.293-.237-.584-.5-.65-.263-.067-.465.119-.45.412zm-1.26.828c.015.293.238.584.5.65.264.064.464-.119.451-.412-.015-.294-.238-.584-.5-.651-.264-.064-.466.12-.45.413zm1.613 1.093c.016.293.238.583.501.65.263.064.463-.119.45-.412-.015-.294-.237-.584-.5-.651-.263-.067-.466.119-.45.412z" fill="#245277"/><path d="M44.015 79.594c1.027.345 2.053.94 2.683 1.97.683 1.112.708 2.414.526 3.716-.243 1.746-.733 3.428-1.11 5.137-.38 1.728-.567 3.492-.663 5.27a38.912 38.912 0 00.172 6.445c.04.366.546.369.506 0-.432-3.847-.339-7.924.5-11.69.403-1.795.913-3.561 1.13-5.403.153-1.29.064-2.592-.586-3.7-.703-1.2-1.843-1.911-3.03-2.31-.305-.1-.439.46-.128.565zm45.97 28.387a.22.22 0 01-.129-.041c-.121-.081-.159-.258-.088-.398 4.65-9.048 5.287-17.038 2.008-25.147-.058-.145-.003-.32.124-.387.126-.066.278-.005.336.143 3.355 8.295 2.71 16.46-2.033 25.685a.243.243 0 01-.218.145z" fill="#D96442"/><path d="M86.624 101.106c-.157 1.563.574 2.575 1.276 3.807-1.15-.3-2.788-1.904-2.925-3.731-.182-2.42 1.15-4.486 1.168-6.84.013-1.45-.809-2.103-1.477-3.17-2.39-3.826.183-7.258 2.736-10.134.112-.125.289.014.233.18-1.092 3.19 2.218 6.738 2.23 10.108.008 2.133-.801 4.208-1.777 5.98-.635 1.148-1.325 2.42-1.464 3.8z" fill="#7F3453"/><path d="M87.65 106.339c-.015 0-.03-.003-.046-.006-1.21-.258-3.036-1.848-3.254-3.847-.146-1.351.162-2.609.46-3.826.258-1.049.504-2.043.476-3.089-.005-.16.106-.293.245-.299.137-.003.255.122.26.282.03 1.136-.237 2.217-.493 3.263-.298 1.214-.581 2.359-.445 3.594.147 1.345 1.181 2.507 2.12 3.051-.577-.927-1.065-1.857-.977-3.185.099-1.476.802-2.868 1.366-3.986 1.087-2.156 1.605-4.14 1.542-5.895-.048-1.282-.488-2.708-.953-4.22l-.106-.342c-.046-.151.023-.317.154-.372.131-.052.276.026.324.177l.106.343c.478 1.552.93 3.019.98 4.387.072 1.895-.454 3.926-1.607 6.213-.567 1.124-1.209 2.397-1.3 3.739-.086 1.281.465 2.147 1.1 3.147.086.133.172.27.258.409a.33.33 0 01.008.326.254.254 0 01-.218.136z" fill="#D96442"/><path d="M73.962 95.47c.32 0 .579-.299.579-.666 0-.367-.26-.665-.58-.665-.319 0-.578.298-.578.665 0 .367.26.665.579.665z" fill="#fff"/><path d="M73.96 95.615c-.39 0-.706-.364-.706-.811 0-.448.316-.81.705-.81.39 0 .706.362.706.81 0 .447-.316.81-.706.81zm0-1.331c-.25 0-.453.232-.453.52 0 .287.202.52.452.52s.453-.233.453-.52c0-.288-.202-.52-.453-.52z" fill="#fff"/></g><mask id="mask1_718_305" style="mask-type:alpha" maskUnits="userSpaceOnUse" x="254" y="1" width="105" height="122"><path transform="matrix(-1 0 0 1 359 1.015)" fill="url(#paint1_linear_718_305)" d="M0 0h104.31v121.752H0z"/></mask><g mask="url(#mask1_718_305)"><path d="M313.337 94.385c-.075.215-.211.869-.536.947-5.244 1.277-10.997 2.986-16.37 3.287l-6.63-.863.613-12.094 1.853-3.126c.615-1.035 1.436-3.181 2.417-3.746.233-.134.495-.184.751-.234 1.061-.2 2.122-.404 3.183-.604l2.166 8.397c.162.627.809 2.174.809 2.174s3.619.281 7.01 0c.119-.01 2.261 2.948 2.428 3.207.472.726 2.628 1.742 2.306 2.655z" fill="#F9A6A4"/><path d="M298.681 95.966c1.138.028 2.279-.02 3.411-.142 4.35-.47 8.483-2.402 12.875-2.538.145-.006.298-.006.426.072.191.117.276.376.327.618.405 1.896-.368 3.93-1.592 5.283-1.225 1.353-2.841 2.13-4.454 2.736-3.491 1.314-7.188 1.974-10.853 1.715-3.667-.259-7.303-1.453-10.44-3.649-.553-.387-1.098-.813-1.49-1.403-.434-.654-.647-1.467-.746-2.28-.063-.529-.08-1.082.08-1.584.591-1.853 2.253-1.202 3.413-.723a25.357 25.357 0 009.043 1.895z" fill="#DD7676"/><path d="M278.184 53.839c.7-.552 1.191-.858 2.068-.877 3.203-.081 7.432-.329 9.658 2.959l.696 1.224-.366.885-2.721.513s-3.771-.231-3.834-.231c-.063 0-5.242-.933-5.242-.933l-.259-3.54z" fill="#7F3453"/><path d="M293.402 64.193c3.749 6.778 5.586 11.415 7.916 19.724-1.64 1.845-3.74 2.752-5.978 3.379l-3.811-2.814-4.627-4.816 6.5-15.473z" fill="#D96442"/><path d="M295.863 87.839c2.052-.126 4.455-1.284 6.059-2.865a.854.854 0 00.189-.87l-.705-2.091c-.053-.159-.228-.203-.339-.09-1.597 1.646-4.004 2.829-6.112 2.957l.908 2.959z" fill="#7F3453"/><path d="M268.085 123.487c-.266 3.615-.138 7.234-.053 11.008.153 6.797.211 13.6.201 20.4a1036.289 1036.289 0 01-.865 40.703l-.307 7.958 1.017.618c1.492.905 3.171 1.319 4.852 1.2 2.154-.153 4.188-1.175 5.751-2.884l.419-.457 3.374-33.666 3.912-27.055 3.409-22.619v-9.731l-3.026-3.084s-12.536-4.62-12.826-4.67c-.31-.051-1.992 3.51-2.135 3.98-1.574 5.211-3.311 12.737-3.723 18.299z" fill="#142943"/><path d="M283.825 128.352c.472 2.065.908 4.061 1.18 5.887 2.8 18.78 6.201 37.287 9.67 55.892l2.071 11.766c.09.398 2.078.509 2.401.568 1.993.364 4.144.829 6.152.336.95-.233 1.861-.69 2.776-1.046l.674-.432-2.57-20.183-2.144-25.51-.502-4.033-3.216-25.169a111.089 111.089 0 00-3.426-16.611l-.739-2.567-9.071-2.254c-8.314 3.064-5.407 13.945-3.256 23.356z" fill="#142943"/><path d="M290.505 92.456a.192.192 0 01-.056-.008c-.976-.264-1.427-1.606-1.221-2.644.213-1.072.923-1.876 1.521-2.455.129-.126.262-.25.393-.373.523-.493 1.02-.955 1.373-1.56.855-1.45.632-3.59-.496-4.767-.298-.312-.642-.557-1.006-.813-.235-.167-.479-.34-.709-.532-.926-.776-1.604-1.859-2.093-2.716-.264-.465-.533-.972-.7-1.526-.509-1.678.009-3.68 1.235-4.765.107-.095.259-.07.339.05.082.123.063.298-.044.39-1.065.94-1.516 2.683-1.073 4.139.143.468.361.899.647 1.403.465.818 1.11 1.848 1.972 2.569.216.18.451.348.678.507.366.258.746.528 1.078.873 1.299 1.359 1.555 3.822.572 5.492-.395.671-.942 1.183-1.471 1.679-.13.122-.259.242-.385.367-.54.523-1.182 1.244-1.361 2.155-.155.782.182 1.795.86 1.979.131.036.211.186.179.334-.024.136-.123.222-.232.222z" fill="#FD5D9A"/><path d="M297.868 87.27c-.002.413-.002.833-.002 1.256 0 .808-.019 1.592-.051 2.358-.189 4.62-.86 8.425-1.1 10.789l-.748 7.412c-.172.084-.347.161-.521.239-4.004 1.771-8.43 1.824-12.521.346l-9.746-3.524-1.116-9.843-.41-3.59-.295-2.611-.41-3.597-.31-2.739c-.993-6.808 1.621-13.625 4.588-19.631l3.164-7.301 1.802-2.862 4.077.802c.397.078 1.013.849 1.33 1.113.93.782 1.364 1.612 2.461 2.018 3.166 1.175 5.833 6.566 7.241 10.202 1.756 4.537 2.313 8.609 2.49 13.007.046 1.158.065 2.338.073 3.554.005.85.004 1.715.004 2.603z" fill="#E6835D"/><path d="M297.863 84.668c-8.864 4.267-18.428 5.48-26.506 5.434l-.41-3.597c8.142.092 17.849-1.082 26.843-5.391.046 1.158.065 2.338.073 3.554zm.005 2.603c-.003.412-.003.832-.003 1.255 0 .808-.019 1.593-.051 2.358-8.592 4.128-17.838 5.391-25.752 5.42l-.41-3.591c8.018.014 17.459-1.225 26.216-5.442z" fill="#D96442"/><path d="M287.574 57.36c-.07 1.263.029 2.53.291 3.755-.426.35-.955.55-1.531.528l-1.042-.038-.712-2.47 1.233-1.689 2.287-3.669.441 2.453.332 2.012c.043.267.053.529.034.785a19.893 19.893 0 00-1.316-1.96l-.017.293z" fill="#F9A6A4"/><path d="M273.548 206.337a8.454 8.454 0 01-4.275-1.18l-1.025-.602c-.119-.069-.167-.236-.107-.375.061-.137.206-.192.325-.123l1.025.601c1.463.858 3.103 1.233 4.738 1.089 2.09-.184 4.067-1.214 5.564-2.901l.349-.395 2.946-33.619 3.573-27.13 2.037-14.772.591-4.732a.303.303 0 01.094-.184l1.64-1.411c.589-.507.952-1.278.998-2.121l.444-5.044c.014-.153.128-.264.266-.25.133.016.23.153.216.306l-.441 5.032c-.056.994-.489 1.918-1.192 2.522l-1.56 1.342-.577 4.62-2.037 14.772-3.573 27.117-2.95 33.705a.3.3 0 01-.071.17l-.414.465c-1.579 1.776-3.662 2.861-5.867 3.056a5.51 5.51 0 01-.717.042z" fill="#475A76"/><path d="M319.82 91.015l-.003.002c-.167.318-.334.61-.494.872-.78 1.272-1.802 2.118-3.088 2.544a21.316 21.316 0 01-4.302.946c-.95.109-1.892.09-2.842.128-.271.011-2.374.256-2.422.136-.087-.22-.172-.456-.255-.7-.632-1.869-1.099-4.346-.315-5.807l1.774-.632 1.446-.518.179-.064.325-.267.547-.451 1.524-1.253.215-.178 4.731-1.945c.071.314.361.481.763.579.519.125 1.219.13 1.863.172.131.009.259.017.383.03.131.015.259.031.378.054.494.086.862.256.942.615.029.136.054.275.068.42.184 1.684-.606 3.777-1.417 5.317z" fill="#F9A6A4"/><path d="M319.817 91.018c-.167.317-.334.61-.494.87-.78 1.273-1.802 2.119-3.089 2.545a21.288 21.288 0 01-4.302.946c-.949.109-1.892.09-2.841.128-.271.011-2.374.256-2.423.137-.087-.22-.172-.457-.254-.702a29.234 29.234 0 005.993-1.069c1.81-.517 3.864-.704 5.555-1.642.639-.353 1.228-.84 1.855-1.213z" fill="#DD7676"/><path d="M316.956 91.7a.318.318 0 01-.099-.026l-7.013-3.04a.358.358 0 01-.186-.202.422.422 0 01-.005-.296l5.678-16.31c.053-.151.182-.248.325-.24.024.003.05.005.075.014l7.64 2.525c.092.03.167.103.208.203a.42.42 0 01.005.311l-6.305 16.827c-.056.15-.184.242-.323.233z" fill="#1A3B5A"/><path d="M323.474 73.727l-7.64-2.525a.647.647 0 00-.156-.03c-.29-.017-.569.178-.68.5l-3.375 9.693-2.303 6.619v.002c-.146.415.036.88.399 1.039l1.267.548 5.746 2.491a.56.56 0 00.209.05c.281.02.554-.164.673-.478l.681-1.815 1.933-5.158 1.756-4.69 1.935-5.164c.165-.442-.043-.949-.445-1.082zm-5.981 16.122l-.533 1.422-5.666-2.455-1.289-.56.366-1.052 1.829-5.25 3.462-9.94 7.574 2.503-1.933 5.163-1.836 4.9-1.974 5.269z" fill="#142942"/><path d="M308.346 87.332c.721-1.433 1.86-2.872 2.085-3.479.252-.676.298-1.447.613-2.088.09-.18.216-.362.393-.406.22-.056.433.122.583.317.536.704.57 1.681.332 2.539-.247.89-.521 1.767-.625 2.697-.162 1.45-.993 4.373-2.572 3.98-1.883-.464-1.589-2.01-.809-3.56zm11.866-7.471a3.972 3.972 0 00-1.526.983c-.247.253-.475.556-.577.918-.102.365-.06.8.172 1.072.233.273.669.309.889.02-.71.367-1.313 1.002-1.691 1.784-.094.197-.179.428-.123.645.121.463.688.443 1.095.329-.453.161-.923.334-1.267.71-.904.996-.053 1.945.964 1.336a2.863 2.863 0 00-1.175.968c-.092.131-.179.276-.196.443-.029.264.131.52.334.646.204.128.443.15.676.15 1.034.006 1.887-.593 2.461-1.564.46-.78 1.09-2.25 1.02-3.218-.019-.276-.184-.56-.424-.593.596.08.753-1.595.703-2.018-.025-.203-.16-.415-.337-.395.266-.025.705-.682.821-.933.201-.431.184-1.082-.228-1.344-.176-.111-.385-.13-.588-.125a3.442 3.442 0 00-1.003.186z" fill="#F9A6A4"/><path d="M311.489 75.455a70.82 70.82 0 01-1.529-.317c-.303-.067-.46.462-.153.528.553.12 1.105.237 1.657.346.306.06.327-.496.025-.557zm1.404-.902a30.47 30.47 0 00-.797-3.064c-.107-.337-.536-.078-.431.256.3.96.549 1.937.753 2.928.073.348.547.23.475-.12z" fill="#2E445D"/><path d="M288.102 53.774c-.014 2.595-1.175 6.664-4.123 6.41l-1.405-.27c-1.884-.16-3.696-.25-3.771-2.42V46.336l3.057-.557 5.099-.93 1.088 7.953c.038.287.058.615.055.971z" fill="#F9A6A4"/><path d="M288.102 53.774c-3.108-.153-6.141-2.38-6.889-6.017-.085-.418.4-1.387.647-1.977l5.099-.93 1.088 7.953c.038.287.058.615.055.971z" fill="#DD7676"/><path d="M285.297 51.937c10.407 1.757 8.29-13.878 3.709-18.312-.773-.75-3.464-1.82-4.46-2.032-5.581-1.194-9.544 5.071-7.136 10.51 1.601 3.616 3.823 9.113 7.793 9.82.031.003.063.009.094.014z" fill="#F9A6A4"/><path d="M279.134 49.9a1.665 1.665 0 01-1.069-.426c-.189-.167-1.119-2.02-.85-2.035-2.582.14-4.401-3.337-3.086-5.892-.15.292-1.204-.123-1.391-.223-1.061-.568-1.538-1.957-1.354-3.243.226-1.58 1.432-2.7 2.793-2.858-.252.03-.462-1.93-.46-2.155.024-1.416 1.335-3.206 2.655-2.224-.957-1.328-.196-3.009.739-4.005.489-.52 1.105-.941 1.776-1.038.334-.048.673-.014.993.108.147.056 1.01.485.981.699.252-1.829 2.018-3.176 3.583-2.73 1.545.439 2.562 2.513 2.051 4.252.49-1.14 1.715-1.684 2.813-1.522 1.463.214 5.084 3.282 2.596 5.088.747-.543 1.839-.259 2.35.568 1.262 2.034-.896 3.61-2.461 3.557.136.793-.075 1.665-.707 2.113-.649.459-1.483.423-2.219.195-.737-.229-1.427-.627-2.163-.855-.046-.014-.596.501-.691.554a2.84 2.84 0 01-.952.34c-.639.105-1.31-.003-1.867-.39.436.99.167 2.23-.628 2.861-.816.649-1.88.306-2.803.31.78.974.754 2.657-.06 3.596 1.012-.36-.429.826.145 1.848.519.924.952 1.806.473 2.758-.264.52-.717.752-1.187.749z" fill="#142943"/><path d="M289.523 26.652a9.052 9.052 0 01-.082 1.033c-.075.532-.194 1.066-.448 1.52-.269.484-.674.846-1.098 1.15-1.78 1.274-4.055 1.591-6.051.848.458 1.436.012 3.235-1.032 4.186-.91.827-2.143.941-3.26.96-.502.01-1.001.018-1.5.026.562 1.225.473 2.808-.225 3.938-.431.705-1.078 1.164-1.793 1.434.03-.07.061-.136.095-.203-.15.292-1.204-.125-1.391-.223-1.061-.57-1.538-1.96-1.354-3.243.223-1.578 1.427-2.697 2.786-2.858-.249 0-.458-1.935-.455-2.157.024-1.417 1.334-3.204 2.655-2.225-.957-1.324-.197-3.006.741-4.002.489-.523 1.105-.94 1.776-1.038a1.96 1.96 0 01.993.108c.147.056 1.01.482.978.699.252-1.829 2.021-3.176 3.583-2.73 1.546.44 2.565 2.513 2.052 4.252.489-1.14 1.715-1.686 2.812-1.525.068.011.141.028.218.05z" fill="#1A3B5A"/><path d="M288.886 41.4l-.172.5c-.138.41-.361.777-.646 1.072a2.08 2.08 0 01-.475.367c-.555.318-1.214.37-1.822.25a3.631 3.631 0 01-1.078-.417c-.053-.028-.681-.409-.714-.409.787-1.116 1.845-2.207 3.192-2.096h.008c.317.028.634.097.935.214.099.04.814.393.772.518z" fill="#fff"/><path d="M288.885 41.399l-.172.501c-.138.41-.361.777-.647 1.072-.146.15-.305.273-.475.367a4.47 4.47 0 01-.48-2.001c.003-.234.025-.46.066-.671.317.028.634.097.935.214.099.04.814.393.773.518z" fill="#1A3B5A"/><path d="M293.592 40.392l-.194.665a2.08 2.08 0 01-.39.754l-.055.07c-.03.033-.059.066-.088.091a1.76 1.76 0 01-2.674-.16l-.354-.457c-.092-.123.533-.835.604-.924.36-.457.881-.813 1.438-.85a1.47 1.47 0 01.4.034c.482.111.904.456 1.313.776z" fill="#fff"/><path d="M293.592 40.391l-.194.666c-.08.28-.213.54-.39.754l-.056.07a.935.935 0 01-.087.091c-.421-.325-.666-1.483-.601-2.249a.923.923 0 01.015-.108c.482.111.904.456 1.313.776z" fill="#1A3B5A"/><path d="M291.167 46.064c-.235 0-.472-.033-.692-.07-.134-.022-.223-.164-.204-.314.019-.153.141-.259.274-.236.392.066.84.122 1.163-.045.116-.061.145-.134.157-.192.046-.223-.111-.59-.291-.84a6.843 6.843 0 00-.559-.66c-.196-.215-.402-.437-.584-.69a7.687 7.687 0 01-.911-1.654c-.056-.14-.002-.306.119-.37s.266-.003.322.136c.22.548.504 1.063.843 1.531.165.226.349.429.545.643.204.223.412.45.598.71.247.345.48.874.388 1.32a.81.81 0 01-.429.573 1.58 1.58 0 01-.739.158z" fill="#DD7676"/><path d="M277.181 45.143c.457 1.54 1.923 2.51 3.33 2.174 2.575-.615 1.199-5.01-.569-5.784-1.703-.744-3.13 1.205-2.873 3.09.024.178.061.353.112.52z" fill="#F9A6A4"/><path d="M286.381 35.256a.242.242 0 01-.211-.14c-.264-.522-.831-1.817-.385-2.518.213-.337.588-.398.814-.434.385-.064.787-.112 1.187-.028a3.83 3.83 0 01-.126-.91c-.003-1.273.988-2.052 2.652-2.082h.005c.131 0 .24.122.242.272.003.153-.104.282-.237.284-.511.011-2.178.148-2.176 1.526 0 .42.126.843.245 1.252a.301.301 0 01-.07.298.216.216 0 01-.267.042c-.423-.237-.898-.184-1.385-.103-.201.033-.405.078-.492.211-.211.334.065 1.225.412 1.913.068.133.027.303-.087.38a.216.216 0 01-.121.037zm-9.927 3.866a3.76 3.76 0 01-1.013-.144c-.567-.156-.538-.64-.499-.84.029-.151.16-.246.288-.212.131.033.213.18.184.33-.017.095-.026.134.138.179.335.092 2.03.487 2.541-.874.209-.554.09-1.267-.283-1.692a.308.308 0 010-.393.22.22 0 01.342 0c.16.184.356.226.586.128.38-.161.811-.726.86-1.453.048-.718-.32-1.364-1.032-1.82-.116-.075-.16-.245-.095-.379.066-.133.214-.184.33-.108 1.196.765 1.315 1.798 1.279 2.346-.056.852-.55 1.665-1.175 1.932a1 1 0 01-.346.083 2.421 2.421 0 01-.022 1.573c-.366.99-1.209 1.344-2.083 1.344z" fill="#4A5D79"/><path d="M288.705 48.386a1.18 1.18 0 01-.24-.023c-.131-.033-.213-.18-.187-.33.027-.151.158-.248.289-.215.213.053.86-.07 1.049-.175.121-.067.266-.012.324.125.058.139.01.303-.109.373-.227.128-.756.245-1.126.245zm-8.968-2.233h-.02c-.453-.008-.959-.342-1.189-.657-.322-.445-.497-1.043-.456-1.556.032-.384.182-.715.432-.951a1.13 1.13 0 01.959-.295c.324.052.605.247.775.531.075.128.046.3-.065.387-.112.086-.262.053-.337-.075a.635.635 0 00-.443-.295.68.68 0 00-.584.172.854.854 0 00-.257.577c-.029.364.107.815.346 1.15.153.21.528.45.824.456.126.002.216-.037.276-.114a.357.357 0 00.037-.351c-.039-.09-.105-.128-.192-.117-.133.017-.252-.095-.266-.248-.015-.153.082-.29.215-.306.289-.033.543.125.674.415a.98.98 0 01-.107.977.75.75 0 01-.622.3z" fill="#DD7676"/><path d="M273.579 34.585c-.712-1.203-.782-2.756-.038-3.97.959-1.57 2.705-1.335 4.164-1.121.273.039.404-.337.169-.515-1.708-1.308.601-3.129 1.657-3.374 1.001-.23 1.989-.028 2.902.479.281.156.511-.334.23-.49-1.518-.84-3.464-.96-4.847.298-1.012.924-1.378 2.655-.172 3.58.056-.173.114-.346.17-.515-1.664-.243-3.59-.44-4.678 1.333-.853 1.389-.785 3.22.032 4.598.179.29.588-.005.411-.303zm2.308 88.542a.243.243 0 01-.214-.145c-.063-.136-.019-.303.097-.378 2.859-1.782 5.121-4.824 6.206-8.345.044-.145.185-.22.311-.17.125.05.191.212.147.357-1.126 3.649-3.471 6.8-6.431 8.648a.23.23 0 01-.116.033zm-7.563.29c-.102 0-.199-.075-.23-.195-.041-.147.029-.303.157-.35 2.672-.975 3.217-7.641 3.304-9.119h-1.293c-.133 0-.242-.125-.242-.278 0-.153.109-.279.242-.279h1.55c.066 0 .129.031.175.087.046.055.07.128.067.203-.012.356-.341 8.707-3.657 9.917a.214.214 0 01-.073.014zm16.476-9.756c4.29.51 8.665.201 12.829-1.124.3-.095.172-.632-.128-.538-4.126 1.311-8.452 1.612-12.701 1.105-.31-.036-.308.521 0 .557z" fill="#475A76"/><path d="M279.925 80.78c-.122 0-.243-.004-.361-.006-.134-.003-.24-.131-.238-.284.003-.153.109-.267.247-.273 1.955.05 4.094-.314 6.357-1.083.128-.044.261.042.3.19.039.147-.036.303-.165.345-2.17.737-4.234 1.11-6.14 1.11zm3.564 2.605c-.268 0-.559-.117-.753-.303-.312-.304-.315-.632-.288-.8a.847.847 0 01.516-.653c.293-.117.613-.048.853.192.271.27.404.754.3 1.102a.611.611 0 01-.574.46c-.02.002-.037.002-.054.002zm-.239-1.255a.297.297 0 00-.124.025.326.326 0 00-.201.228c-.017.109.058.209.124.273a.676.676 0 00.467.172c.119-.005.133-.058.141-.083.036-.123-.025-.368-.158-.501a.343.343 0 00-.249-.114z" fill="#7F3453"/><path d="M299.87 96.008l-1.213 7.538c-.284 1.756-.565 3.51-.848 5.266-.131.818-.143 2.781-.904 3.123a1.812 1.812 0 01-.317.098c-2.495.567-4.906.782-7.1-.969l-.228-.181a.735.735 0 01-.264-.559l-.431-14.758c-.017-.552.496-.897.918-.635.109.067.22.128.329.178 2.135 1.013 4.68 1.289 6.95.81.756-.156 1.519-.34 2.234-.676l.014-.009c.458-.222.95.212.86.774z" fill="#142942"/><path d="M288.393 98.207c3.283 2.255 7.728 2.992 11.175 1.289.266-.131.55.15.482.476l-1.231 5.848a.41.41 0 01-.184.27c-3.619 2.149-6.654 1.623-10.077-1.005a.42.42 0 01-.157-.303l-.545-6.185c-.032-.337.286-.565.537-.39z" fill="#1A3B5A"/><path d="M299.863 108.3c.215.615.314 1.314.121 1.937-.189.624-.725 1.136-1.301 1.083.007.008.014.02.017.031.174.267.148.659-.003.94-.45.841-1.95.908-2.691.986a17.17 17.17 0 01-5.94-.434c-1.991-.496-3.793-1.631-5.743-2.169-.308-.086-.061-1.021-.102-1.258-.014-.078-.024-.158-.034-.236a3.684 3.684 0 01.078-1.164c.191-.882.637-2.113 1.494-2.775.432-.334.255-.604.763-.682 1.173-.187 2.634-.916 3.409-1.976.528-.721.726-1.718 1.305-2.386.085-.1.187-.197.31-.211.264-.034.436.3.521.59.206.715.732 3.897-.363 3.963 3.866-.233 5.55-1.581 7.253-1.895.305-.056.617-.111.922-.045 1.236.279.778 1.888.202 2.634.382.517.775 1.093.818 1.767.039.682-.458 1.431-1.036 1.3z" fill="#F9A5A3"/><path d="M298.7 111.351c.174.267.148.659-.003.941-.45.84-1.95.907-2.691.985a17.17 17.17 0 01-5.94-.434c-1.991-.496-3.793-1.631-5.743-2.169-.308-.086-.061-1.021-.102-1.258-.014-.078-.024-.158-.034-.236.313.105.618.228.926.345.843.326 1.763.687 2.717 1.027 2.091.74 4.324 1.18 6.539 1.202 1.446.014 2.894-.167 4.331-.403z" fill="#DD7676"/><path d="M288.497 96.409c-.499-.484-.516-1.372-.022-1.86.853-.843 2.592-1.906 5.768-1.51 2.807.35 4.593 1.388 5.624 2.243.671.554.575 1.728-.176 2.124a10.58 10.58 0 01-4.937 1.21c-2.98-.008-5.138-1.124-6.257-2.207z" fill="#1A3B5A"/><path d="M290.437 94.383c-.323-.312-.332-.883-.015-1.2.55-.546 1.669-1.228 3.716-.974 1.81.225 2.96.893 3.624 1.444.431.357.371 1.114-.114 1.37-.7.37-1.795.782-3.181.78-1.918-.004-3.308-.722-4.03-1.42z" fill="#142942"/><path d="M295.368 112.072c-.126 0-.23-.112-.242-.256-.01-.154.089-.287.223-.301a22.866 22.866 0 003.175-.521c.131-.03.259.067.286.218.027.15-.058.297-.189.328-1.063.25-2.151.429-3.234.529-.005.003-.012.003-.019.003zm.144-2.659c-.131 0-.237-.12-.242-.27-.005-.153.099-.281.232-.287a22.135 22.135 0 004.285-.592c.131-.031.26.064.286.214.027.15-.055.298-.186.328a22.461 22.461 0 01-4.368.604c0 .003-.002.003-.007.003zm.231-2.73c-.124 0-.23-.109-.24-.254-.012-.153.085-.289.218-.303 1.206-.128 2.938-.448 4.186-.958.126-.05.264.025.31.17.044.145-.022.304-.148.356-1.289.526-3.069.855-4.304.989-.008-.003-.015 0-.022 0z" fill="#E3734E"/><path d="M293.009 93.848c-.121 0-.226-.103-.24-.245-.078-.732-.468-1.42-1.02-1.792-.16-.11-.332-.193-.516-.284-.346-.17-.702-.348-.981-.685-.339-.41-.511-1.022-.472-1.679.058-.985.54-1.945 1.475-2.936.196-.209.4-.407.603-.607.526-.515 1.02-1.005 1.395-1.62.468-.771.73-1.918.26-2.747-.332-.582-.923-.871-1.548-1.178a10.632 10.632 0 01-.562-.286c-.521-.287-.981-.652-1.367-.969-.869-.72-1.918-1.728-2.286-3.126-.32-1.21-.058-2.608.666-3.56.09-.117.242-.128.341-.028.102.1.112.276.025.393-.616.813-.839 2.001-.567 3.034.324 1.233 1.245 2.126 2.105 2.836.366.303.807.651 1.293.919.175.097.359.186.541.275.666.326 1.351.66 1.763 1.386.594 1.047.293 2.447-.266 3.371-.41.674-.952 1.208-1.476 1.723-.198.195-.397.39-.588.593-.838.89-1.272 1.729-1.32 2.566-.03.501.094.96.341 1.258.211.254.506.401.821.557.189.095.385.192.572.315.681.459 1.163 1.305 1.257 2.207.017.153-.08.292-.21.309h-.039zm3.737.234c-.099 0-.191-.07-.227-.184a4.002 4.002 0 01.022-2.419c.155-.465.392-.874.622-1.272.078-.133.155-.27.23-.406 1.296-2.372.141-4.426-.978-6.413-1.175-2.088-2.391-4.248-.291-6.455.32-.337.741-.68 1.112-.98.109-.09.261-.059.336.067a.304.304 0 01-.058.387c-.361.292-.768.623-1.066.938-1.797 1.89-.794 3.677.371 5.742 1.146 2.035 2.442 4.34.981 7.012-.077.139-.157.278-.237.417-.225.39-.439.754-.574 1.164a3.332 3.332 0 00-.017 2.029c.046.144-.02.303-.146.356a.194.194 0 01-.08.017zm-3.106-16.133c-.099 0-.191-.07-.228-.181-.525-1.64-.792-2.722.33-4.206.852-1.127 1.179-2.435 1.024-4.111-.014-.153.083-.29.216-.306.136-.014.252.094.266.248.168 1.814-.205 3.298-1.141 4.534-.949 1.255-.748 2.07-.242 3.649.046.145-.017.303-.143.356a.213.213 0 01-.082.017z" fill="#C1C7D3"/><path d="M286.598 104.584c-.211 1.896-1.233 3.196-1.754 4.863a6.523 6.523 0 00-.266 1.25c-7.008-.596-13.656-1.96-19.91-5.634-1.056-.618-2.139-1.331-2.752-2.494-2.088-3.96-.119-11.184.736-15.869.08-.442.153-.862.209-1.255.058-.406.123-.557.266-.607.102-.036.247-.02.463-.005.799.044 2.166 2.076 2.916 2.41.822.36 1.64.721 2.462 1.083 1.637.72 3.277 1.445 4.917 2.165-.329 1.966-.656 3.93-.986 5.893 8.193 5.063 6.565 5.69 13.699 8.2z" fill="#F9A5A3"/><path d="M284.844 109.447a6.523 6.523 0 00-.266 1.25c-7.008-.596-13.656-1.96-19.91-5.634-1.056-.618-2.139-1.331-2.752-2.494-2.088-3.961-.119-11.184.736-15.869.817.515 1.631 1.122 2.389.66-1.034 3.952-2.757 7.805-1.633 11.905.032.111.063.222.1.331.884 2.756 3.241 4.075 5.527 4.916a156.474 156.474 0 009.111 3.003c2.209.66 4.528 1.08 6.698 1.932z" fill="#DD7676"/><path d="M279.502 111.69c-.01 0-.019 0-.029-.002-6.461-.863-11.836-2.589-16.429-5.278-.901-.529-1.923-1.177-2.621-2.199-1.659-2.433-1.177-5.998-.792-8.862l.041-.298c.02-.153.143-.256.276-.234.134.022.223.164.204.317l-.041.298c-.373 2.759-.836 6.191.692 8.434.638.933 1.604 1.545 2.459 2.046 4.54 2.658 9.859 4.364 16.264 5.222.133.016.228.156.213.309-.009.144-.113.247-.237.247zm-4.185-13.455a.23.23 0 01-.094-.023 41.665 41.665 0 01-1.906-1.013c-.65-.362-1.263-.701-1.917-.999-.123-.056-.184-.22-.135-.362.048-.142.191-.211.315-.156.668.306 1.288.652 1.947 1.016.584.326 1.19.66 1.885 1.002.123.061.179.223.128.365a.242.242 0 01-.223.17z" fill="#7F3453"/><path d="M277.724 58.28c-4.038 2.923-8.137 7.397-10.889 11.95-1.465 2.425-2.502 5.114-3.28 7.92-.218.781-2.061 9.508-1.625 9.591l5.697 1.069h7.917l1.431-6.33.972-16.166c.249-2.088.29-6.024-.223-8.033z" fill="#E6835D"/><path d="M262.516 79.794c.446 2.48 10.695 3.104 16.088 2.133l-.768 2.87c-5.393.97-11.16.222-16.402-1.518l1.082-3.485z" fill="#D96442"/><path d="M260.231 85.584c-.014 0-.029 0-.043-.005-.131-.028-.218-.173-.196-.323.411-2.609 1.325-6.9 1.487-7.488.867-3.123 1.95-5.737 3.311-7.991 2.115-3.502 5.027-6.981 8.2-9.8.107-.095.257-.073.339.05a.304.304 0 01-.043.389c-3.135 2.786-6.01 6.224-8.098 9.678-1.335 2.207-2.396 4.774-3.249 7.844-.135.493-1.046 4.715-1.473 7.418-.019.134-.121.228-.235.228z" fill="#E6835D"/><path d="M261.654 86.319l.509.214a25.54 25.54 0 005.532 1.628l.119.02c2.04.356 4.108.454 6.167.295l1.686-.13c.134-.012.24.13.214.28l-.393 2.155c-.075.406-.16.81-.259 1.21l-.237.97c-.027.105-.109.18-.204.183l-2.444.075c-1.543.109-3.094.05-4.627-.178l-1.262-.187a22.136 22.136 0 01-4.646-1.219l-.729-.278c-.267-.103-.429-.41-.385-.727l.547-4.033c.032-.223.23-.356.412-.278z" fill="#7F3453"/><path d="M272.824 96.687c-.01 0-.02 0-.029-.003-.133-.02-.228-.156-.211-.309.124-1.163.342-2.324.649-3.443.041-.147.177-.228.303-.18.128.047.199.203.157.347a20.925 20.925 0 00-.629 3.343c-.015.142-.119.245-.24.245zm2.357-5.049a.213.213 0 01-.058-.009c-.131-.036-.208-.186-.177-.336l1.41-6.583c.032-.15.165-.24.293-.203.131.036.209.186.177.336l-1.41 6.583c-.026.128-.126.212-.235.212zm16.208-23.682c-.105 0-.199-.075-.231-.194-.579-2.127-1.458-4.153-2.306-6.11l-.06-.142c-.061-.136-.012-.303.109-.373s.266-.011.324.125l.061.142c.857 1.976 1.744 4.022 2.335 6.19.039.148-.031.304-.16.349a.221.221 0 01-.072.013zm-3.182-3.146a.74.74 0 01-.511-.205c-.353-.337-.378-.963-.196-1.353.165-.35.48-.495.821-.376.298.103.536.426.608.819.053.286.012.56-.111.765a.705.705 0 01-.289.27.69.69 0 01-.322.08zm-.116-1.419c-.07 0-.121.04-.162.126-.095.203-.056.531.077.66.085.08.223.1.327.046a.202.202 0 00.085-.077.503.503 0 00.036-.334c-.036-.195-.145-.357-.273-.401a.227.227 0 00-.09-.02zm.864 4c-.269 0-.494-.15-.62-.428-.184-.401-.114-.966.155-1.256.223-.24.54-.253.848-.039.247.173.402.518.395.874-.007.323-.143.59-.373.732a.7.7 0 01-.211.09.695.695 0 01-.194.027zm-.046-1.32c-.051 0-.077.029-.089.04-.109.117-.138.415-.058.59.036.078.101.164.283.117a.32.32 0 00.08-.034c.097-.06.119-.172.121-.258.002-.156-.063-.315-.162-.385-.078-.052-.134-.07-.175-.07zm-.946-4.525l-2.279.39a9.01 9.01 0 01-3.527-.095l-.494-.111a9.51 9.51 0 01-2.977-1.244l-.519-.329a9.845 9.845 0 01-1.109-.81c-.368-.306-.792-.662-.792-.662.298-1.618.748-3.24 1.918-4.846.007-.009.007-.017.012-.026.473.758.955 1.531 1.606 2.088 1.471 1.258 4.092 1.837 6.013 1.545.116-.017.232-.04.344-.064l1.434-.315-.017.293a14.259 14.259 0 00.387 4.186zm3.187-2.11c-.056.465-.78.924-1.371 1.384a11.982 11.982 0 00-.87-1.793 19.888 19.888 0 00-1.315-1.96c.397-.147.731-.448.949-.837.143-.254.213-.532.284-.816.487.1 1.104.796 1.439 1.216.571.721.69 1.55.833 2.475.014.095.063.237.051.331z" fill="#7F3453"/><path d="M302.983 82.458c-.096 0-.188-.067-.225-.175-2.572-7.507-5.487-15.43-10.3-22.474a.305.305 0 01.041-.39c.105-.094.257-.072.339.048 4.855 7.106 7.786 15.067 10.371 22.615.048.142-.012.304-.136.362-.029.006-.06.014-.09.014z" fill="#D3E0DC"/><path d="M281.924 110.697c-.942-1.412-.608-3.711.039-5.189.269-.615 1.131-2.385 1.885-2.143l1.913.554c-.75-.242-1.615 1.528-1.884 2.143-.647 1.478-.959 3.607-.017 5.019l-1.936-.384z" fill="#7F3453"/><path d="M282.132 110.554c-.93-1.441-.576-3.565.102-5.046.279-.607.615-1.306 1.11-1.717.336-.282.658-.095 1.024.011l1.328.384.128-.537c-.564-.148-1.032.356-1.359.821a8.161 8.161 0 00-.925 1.756c-.594 1.55-.824 3.549.109 4.994l.274-.41-1.936-.386c-.305-.062-.436.476-.128.537.644.128 1.288.256 1.935.387.182.036.412-.192.274-.41-.809-1.255-.637-2.958-.145-4.328a8.194 8.194 0 01.7-1.458c.203-.34.637-1.083 1.073-.969.303.078.431-.448.128-.537l-1.301-.376c-.426-.122-.845-.323-1.269-.072-.618.367-1.037 1.183-1.361 1.859a8.139 8.139 0 00-.744 2.536c-.136 1.113-.034 2.316.562 3.243.186.283.608.008.421-.282z" fill="#7F3453"/><path d="M283.837 108.147c.126-.204.221-.437.274-.693.329-1.579-1.095-3.725-2.992-2.255-1.453 1.124-.748 3.657.928 3.847.705.078 1.4-.268 1.79-.899z" fill="#142942"/><path d="M284.028 108.271c.506-.843.436-1.987-.071-2.811-.499-.815-1.344-1.194-2.187-.904-.86.297-1.57 1.068-1.65 2.126-.065.877.332 1.754.967 2.232.954.721 2.279.399 2.941-.643.167-.261-.214-.509-.376-.253-.479.752-1.446 1.005-2.168.582-.538-.315-.906-.963-.93-1.659-.029-.838.438-1.45 1.073-1.79.644-.345 1.361-.217 1.841.395.531.68.64 1.71.184 2.469-.16.27.218.521.376.256z" fill="#142942"/><path d="M283.114 107.874c.126-.203.221-.437.274-.693.33-1.578-1.095-3.724-2.991-2.255-1.454 1.125-.749 3.658.927 3.847.705.078 1.398-.267 1.79-.899z" fill="#142942"/><path d="M283.305 108c.506-.844.436-1.988-.068-2.812-.499-.815-1.345-1.194-2.188-.904-.86.297-1.569 1.068-1.649 2.126-.066.877.331 1.754.966 2.233.95.72 2.275.398 2.939-.643.167-.262-.214-.51-.376-.254-.48.752-1.446 1.005-2.168.582-.538-.315-.906-.963-.93-1.659-.029-.838.438-1.45 1.073-1.79.644-.345 1.361-.217 1.841.396.53.679.639 1.709.184 2.468-.162.27.216.521.376.257z" fill="#82B7D6"/></g><defs><linearGradient id="paint0_linear_718_305" x1="53.024" y1="0" x2="53.024" y2="123.781" gradientUnits="userSpaceOnUse"><stop stop-color="#C4C4C4"/><stop offset=".547" stop-color="#C4C4C4"/><stop offset=".99" stop-color="#C4C4C4" stop-opacity="0"/></linearGradient><linearGradient id="paint1_linear_718_305" x1="52.155" y1="0" x2="52.155" y2="121.752" gradientUnits="userSpaceOnUse"><stop stop-color="#C4C4C4"/><stop offset=".547" stop-color="#C4C4C4"/><stop offset=".99" stop-color="#C4C4C4" stop-opacity="0"/></linearGradient></defs></svg>