<svg width="24" height="24" fill="none" xmlns="http://www.w3.org/2000/svg"><path fill-rule="evenodd" clip-rule="evenodd" d="M15.316 10.895h-1.658V7.026a.551.551 0 00-.553-.552h-2.21a.551.551 0 00-.553.552v6.99a7.184 7.184 0 01-5.526-6.99v-.552H1.5v.552c0 5.8 4.701 10.5 10.5 10.5h1.105a.552.552 0 00.39-.162l.013-.012a.55.55 0 00.15-.378v-.849.004-1.919h2.763a2.751 2.751 0 011.86.72c.555.505.903 1.234.903 2.044v.177a.375.375 0 00.375.375h2.566a.375.375 0 00.375-.375v-.177a6.069 6.069 0 00-2.252-4.723A7.184 7.184 0 0022.5 7.026v-.178a.373.373 0 00-.375-.375h-2.566a.375.375 0 00-.375.375v.177a3.868 3.868 0 01-3.868 3.869z" fill="#FF426F"/></svg>