<svg width="24" height="24" fill="none" xmlns="http://www.w3.org/2000/svg"><path fill-rule="evenodd" clip-rule="evenodd" d="M11.815 17.93h1.213s.364-.057.546-.232c.181-.174.181-.523.181-.523s0-1.512.728-1.744c.728-.233 1.698 1.511 2.668 2.151.727.523 1.273.407 1.273.407l2.668-.058s1.394-.058.727-1.163c-.06-.058-.363-.756-2-2.21-1.698-1.511-1.456-1.22.545-3.837 1.213-1.57 1.698-2.5 1.577-2.965-.122-.407-1.031-.29-1.031-.29h-3.032s-.242-.059-.363.057c-.182.117-.243.291-.243.291s-.485 1.221-1.091 2.268c-1.334 2.15-1.88 2.267-2.062 2.15-.485-.29-.364-1.278-.364-1.918 0-2.093.364-2.965-.666-3.198-.303-.058-.546-.116-1.395-.116-1.091 0-2 0-2.486.233-.364.174-.606.523-.424.523s.667.116.91.407c.242.523.242 1.395.242 1.395s.182 2.5-.425 2.791c-.424.233-.97-.232-2.182-2.21-.607-.988-1.092-2.15-1.092-2.15s-.06-.233-.242-.35c-.182-.116-.485-.174-.485-.174H2.66s-.424 0-.606.175c-.121.174 0 .465 0 .465s2.243 5 4.79 7.558c2.364 2.442 4.971 2.268 4.971 2.268z" fill="#949A98"/></svg>